<svg xmlns="http://www.w3.org/2000/svg" viewBox="0 0 128 128" role="img" aria-labelledby="title desc">
  <title id="title">Bundle Analyzer Logo</title>
  <desc id="desc">Contemporary icon showing a package under active scan with an issue beacon.</desc>
  <defs>
    <linearGradient id="bg" x1="14" y1="8" x2="114" y2="122" gradientUnits="userSpaceOnUse">
      <stop offset="0" stop-color="#020617"/>
      <stop offset="1" stop-color="#0f172a"/>
    </linearGradient>
    <linearGradient id="edge" x1="20" y1="16" x2="108" y2="112" gradientUnits="userSpaceOnUse">
      <stop offset="0" stop-color="#334155"/>
      <stop offset="1" stop-color="#1e293b"/>
    </linearGradient>
    <linearGradient id="scan" x1="50" y1="44" x2="100" y2="96" gradientUnits="userSpaceOnUse">
      <stop offset="0" stop-color="#22d3ee"/>
      <stop offset="1" stop-color="#3b82f6"/>
    </linearGradient>
    <linearGradient id="boxTop" x1="39" y1="37" x2="88" y2="55" gradientUnits="userSpaceOnUse">
      <stop offset="0" stop-color="#475569"/>
      <stop offset="1" stop-color="#334155"/>
    </linearGradient>
    <linearGradient id="boxSideA" x1="40" y1="45" x2="64" y2="83" gradientUnits="userSpaceOnUse">
      <stop offset="0" stop-color="#334155"/>
      <stop offset="1" stop-color="#1e293b"/>
    </linearGradient>
    <linearGradient id="boxSideB" x1="64" y1="45" x2="88" y2="83" gradientUnits="userSpaceOnUse">
      <stop offset="0" stop-color="#3f4f66"/>
      <stop offset="1" stop-color="#263549"/>
    </linearGradient>
  </defs>

  <rect x="8" y="8" width="112" height="112" rx="30" fill="url(#bg)"/>
  <rect x="10" y="10" width="108" height="108" rx="28" fill="none" stroke="url(#edge)" stroke-width="1.5"/>
  <circle cx="64" cy="64" r="47" fill="none" stroke="#0b1222" stroke-width="16" opacity="0.55"/>

  <path d="M40 43 64 30l24 13-24 13z" fill="url(#boxTop)"/>
  <path d="M40 43v26l24 14V56z" fill="url(#boxSideA)"/>
  <path d="M88 43v26L64 83V56z" fill="url(#boxSideB)"/>
  <path d="M64 30v26" stroke="#93c5fd" stroke-width="1.5" opacity="0.35"/>
  <path d="M52 49h24" stroke="#7dd3fc" stroke-width="1.5" opacity="0.4"/>

  <circle cx="77" cy="76" r="18" fill="none" stroke="url(#scan)" stroke-width="4.5"/>
  <circle cx="77" cy="76" r="11" fill="none" stroke="#22d3ee" stroke-width="2" opacity="0.45"/>
  <path d="M90 89l10 10" stroke="#38bdf8" stroke-width="5.5" stroke-linecap="round"/>
  <path d="M64 76h8l4-5 5 8h7" fill="none" stroke="#67e8f9" stroke-width="1.8" stroke-linecap="round" stroke-linejoin="round" opacity="0.9"/>

  <circle cx="98" cy="30" r="8.5" fill="#ef4444"/>
  <path d="M96.3 26.2h3.4V33h-3.4zm0 8.7h3.4v3.4h-3.4z" fill="#fff"/>
</svg>
